<svg width="6" height="10" viewBox="0 0 6 10" fill="none" xmlns="http://www.w3.org/2000/svg">
<path d="M0.275852 0.280602C0.0991705 0.458339 0 0.698769 0 0.949381C0 1.19999 0.0991705 1.44042 0.275852 1.61816L3.63398 5.02372L0.275852 8.38184C0.0991705 8.55958 0 8.80001 0 9.05062C0 9.30123 0.0991705 9.54166 0.275852 9.7194C0.364039 9.80831 0.468958 9.87888 0.584556 9.92704C0.700155 9.9752 0.824145 10 0.949375 10C1.0746 10 1.19859 9.9752 1.31419 9.92704C1.42979 9.87888 1.53471 9.80831 1.6229 9.7194L5.64506 5.69724C5.73397 5.60905 5.80454 5.50413 5.8527 5.38853C5.90086 5.27294 5.92566 5.14895 5.92566 5.02372C5.92566 4.89849 5.90086 4.7745 5.8527 4.6589C5.80454 4.5433 5.73397 4.43838 5.64506 4.35019L1.6229 0.280602C1.53471 0.191689 1.42979 0.121118 1.31419 0.072957C1.19859 0.0247965 1.0746 0 0.949375 0C0.824145 0 0.700155 0.0247965 0.584556 0.072957C0.468958 0.121118 0.364039 0.191689 0.275852 0.280602Z" fill="#383838"/>
</svg>
